<mxfile host="app.diagrams.net" agent="Mozilla/5.0 (Windows NT 10.0; Win64; x64) AppleWebKit/537.36 (KHTML, like Gecko) Chrome/139.0.0.0 Safari/537.36" version="28.1.2">
  <diagram name="Page-1" id="VIJwbiuAATCycPNsn3Cv">
    <mxGraphModel dx="650" dy="1102" grid="1" gridSize="10" guides="1" tooltips="1" connect="1" arrows="1" fold="1" page="1" pageScale="1" pageWidth="827" pageHeight="1169" math="0" shadow="0">
      <root>
        <mxCell id="0" />
        <mxCell id="1" parent="0" />
        <mxCell id="CAvFFQNDEoXTm-rS5Ezn-9" value="Intranet" style="swimlane;whiteSpace=wrap;html=1;fillColor=#ffe6cc;strokeColor=#d79b00;" parent="1" vertex="1">
          <mxGeometry x="170" y="360" width="350" height="240" as="geometry">
            <mxRectangle x="80" y="360" width="80" height="30" as="alternateBounds" />
          </mxGeometry>
        </mxCell>
        <mxCell id="CAvFFQNDEoXTm-rS5Ezn-10" value="Internet" style="swimlane;whiteSpace=wrap;html=1;fillColor=#dae8fc;strokeColor=#6c8ebf;" parent="1" vertex="1">
          <mxGeometry x="560" y="360" width="230" height="240" as="geometry">
            <mxRectangle x="80" y="360" width="80" height="30" as="alternateBounds" />
          </mxGeometry>
        </mxCell>
        <mxCell id="CAvFFQNDEoXTm-rS5Ezn-18" value="" style="edgeStyle=orthogonalEdgeStyle;rounded=0;orthogonalLoop=1;jettySize=auto;html=1;" parent="CAvFFQNDEoXTm-rS5Ezn-10" source="CAvFFQNDEoXTm-rS5Ezn-1" target="CAvFFQNDEoXTm-rS5Ezn-14" edge="1">
          <mxGeometry relative="1" as="geometry" />
        </mxCell>
        <mxCell id="CAvFFQNDEoXTm-rS5Ezn-1" value="Planned Manpower&lt;div&gt;(Excel)&lt;/div&gt;" style="rounded=0;whiteSpace=wrap;html=1;fillColor=#ffe6cc;strokeColor=#d79b00;" parent="CAvFFQNDEoXTm-rS5Ezn-10" vertex="1">
          <mxGeometry x="-360" y="90" width="120" height="60" as="geometry" />
        </mxCell>
        <mxCell id="CAvFFQNDEoXTm-rS5Ezn-14" value="Format Message&lt;div&gt;+&lt;br&gt;Generate QR&lt;/div&gt;&lt;div&gt;(VBA)&lt;/div&gt;" style="rounded=0;whiteSpace=wrap;html=1;fillColor=#ffe6cc;strokeColor=#d79b00;fontStyle=1" parent="CAvFFQNDEoXTm-rS5Ezn-10" vertex="1">
          <mxGeometry x="-220" y="80" width="120" height="80" as="geometry" />
        </mxCell>
        <mxCell id="CAvFFQNDEoXTm-rS5Ezn-12" value="Disseminate" style="rounded=0;whiteSpace=wrap;html=1;fillColor=#dae8fc;strokeColor=#6c8ebf;" parent="CAvFFQNDEoXTm-rS5Ezn-10" vertex="1">
          <mxGeometry x="60" y="90" width="120" height="60" as="geometry" />
        </mxCell>
        <mxCell id="CAvFFQNDEoXTm-rS5Ezn-21" value="" style="edgeStyle=orthogonalEdgeStyle;rounded=0;orthogonalLoop=1;jettySize=auto;html=1;" parent="CAvFFQNDEoXTm-rS5Ezn-10" source="CAvFFQNDEoXTm-rS5Ezn-16" target="CAvFFQNDEoXTm-rS5Ezn-12" edge="1">
          <mxGeometry relative="1" as="geometry" />
        </mxCell>
        <mxCell id="CAvFFQNDEoXTm-rS5Ezn-16" value="Scan QR&lt;div&gt;(Instant)&lt;/div&gt;" style="rounded=0;whiteSpace=wrap;html=1;fillColor=#f5f5f5;fontColor=#333333;strokeColor=#666666;" parent="CAvFFQNDEoXTm-rS5Ezn-10" vertex="1">
          <mxGeometry x="-80" y="90" width="120" height="60" as="geometry" />
        </mxCell>
        <mxCell id="CAvFFQNDEoXTm-rS5Ezn-22" value="" style="edgeStyle=orthogonalEdgeStyle;rounded=0;orthogonalLoop=1;jettySize=auto;html=1;" parent="CAvFFQNDEoXTm-rS5Ezn-10" source="CAvFFQNDEoXTm-rS5Ezn-14" target="CAvFFQNDEoXTm-rS5Ezn-16" edge="1">
          <mxGeometry relative="1" as="geometry" />
        </mxCell>
      </root>
    </mxGraphModel>
  </diagram>
</mxfile>
